<svg xmlns="http://www.w3.org/2000/svg" xmlns:xlink="http://www.w3.org/1999/xlink" width="234" height="142" viewBox="0 0 234 142">
  <defs>
    <linearGradient id="linear-gradient" x1="1" y1="0.5" x2="-0.016" y2="0.249" gradientUnits="objectBoundingBox">
      <stop offset="0" stop-color="#a283e8"/>
      <stop offset="1" stop-color="#805ecb"/>
    </linearGradient>
  </defs>
  <g id="Rectangle_145138" data-name="Rectangle 145138" stroke="#9a6eef" stroke-width="1" fill="url(#linear-gradient)">
    <path d="M40,0H228a6,6,0,0,1,6,6V136a6,6,0,0,1-6,6H6a6,6,0,0,1-6-6V40A40,40,0,0,1,40,0Z" stroke="none"/>
    <path d="M40,.5H228A5.5,5.5,0,0,1,233.5,6V136a5.5,5.5,0,0,1-5.5,5.5H6A5.5,5.5,0,0,1,.5,136V40A39.5,39.5,0,0,1,40,.5Z" fill="none"/>
  </g>
</svg>
