<svg xmlns="http://www.w3.org/2000/svg" xmlns:xlink="http://www.w3.org/1999/xlink" width="234" height="142" viewBox="0 0 234 142">
  <defs>
    <linearGradient id="linear-gradient" x1="0.963" y1="0.045" x2="-0.029" y2="0.733" gradientUnits="objectBoundingBox">
      <stop offset="0" stop-color="#3bd3c3"/>
      <stop offset="1" stop-color="#3da096"/>
    </linearGradient>
  </defs>
  <g id="Rectangle_145212" data-name="Rectangle 145212" stroke="#3cb0a5" stroke-width="1" fill="url(#linear-gradient)">
    <path d="M6,0H228a6,6,0,0,1,6,6v96a40,40,0,0,1-40,40H6a6,6,0,0,1-6-6V6A6,6,0,0,1,6,0Z" stroke="none"/>
    <path d="M6,.5H228A5.5,5.5,0,0,1,233.5,6v96A39.5,39.5,0,0,1,194,141.5H6A5.5,5.5,0,0,1,.5,136V6A5.5,5.5,0,0,1,6,.5Z" fill="none"/>
  </g>
</svg>
